<svg xmlns="http://www.w3.org/2000/svg">
  <defs>
    <clipPath id="a">
      <path d="M2.54 3h298.92v300H2.54z"/>
    </clipPath>
    <linearGradient id="b" gradientUnits="userSpaceOnUse" x1="20.141" y1="150.391" x2="278.627" y2="150.391">
      <stop offset="0" stop-color="#f7fae7"/>
      <stop offset="1" stop-color="#e7e7e5"/>
    </linearGradient>
  </defs>
  <path fill="#f2f8f1" d="M149.385 6.824v1.683c39.184 0 74.643 15.877 100.326 41.554 25.678 25.684 41.555 61.147 41.555 100.332 0 39.18-15.877 74.643-41.554 100.325-25.682 25.678-61.14 41.555-100.325 41.555-39.186 0-74.65-15.877-100.326-41.555C23.376 225.035 7.5 189.573 7.5 150.392c0-39.185 15.877-74.648 41.56-100.33C74.735 24.383 110.2 8.506 149.384 8.506v-3.37c-80.22.006-145.25 65.035-145.25 145.255s65.03 145.25 145.25 145.25 145.25-65.03 145.25-145.25-65.03-145.25-145.25-145.255z"/>
  <path fill="#697260" d="M149.385 292.272c-39.186 0-74.65-15.877-100.326-41.555C23.376 225.035 7.5 189.573 7.5 150.392c0-39.185 15.877-74.648 41.56-100.33C74.735 24.383 110.2 8.506 149.384 8.506V6.824v1.683c39.184 0 74.643 15.877 100.326 41.554 25.678 25.684 41.555 61.147 41.555 100.332 0 39.18-15.877 74.643-41.554 100.325-25.682 25.678-61.14 41.555-100.325 41.555z"/>
  <path clip-path="url(#a)" fill="url(#b)" d="M68.648 195.192c16.867 9.94 42.972 14.705 64.875.088 9.092-6.068 16.332-15.44 19.02-26.216.152-.61 1.114-3.365.768-3.83-2.545-3.406-9.03-6.21-13.418-7.986-28.36-11.48-63.172 7.287-71.143 37.547-.037.132-.07.264-.102.397zM150.705 147l.03-.295c.125-1.145.224-2.308.316-3.49.197-2.514.338-5.104.39-7.798.115-5.74-.02-8.808-.636-13.916-3.51-29.1-21.683-44.027-49.407-46.895-1.914-.198-11.792-1.473-13.212-.545-.23.15-.29 1.672-.342 1.99-.635 3.89-1.054 8.993-1.11 10.01-1.637 29.737 14.252 50.927 46.434 58.35 3.522.81 6.993 1.41 10.41 1.86 1.91.25 3.808.453 5.684.614.484.04.965.08 1.445.116zm10.422 7.815c44.344 1.1 64.758-21.708 59.914-67.73-42.673 3.058-65.003 22.99-59.913 67.73zm59.345 68.56c-3.795-30.303-29.37-56.107-61.952-60.744 19.99 19.83 42.86 38.885 41.712 67.063-.085 2.11-.22 8.535-2.587 10.62-7.496 6.6-21.988 9.615-31.15 11.443C86.918 267.636 3.012 182.27 49.808 94.706c8.03-15.026 19.796-28.215 33.87-37.973 108.202-75.018 230.092 75.442 136.795 166.643zM149.384 20.604c-39.015.124-64.544 14.038-84.872 31.77C-9.46 116.9 15.87 232.753 97.992 268.465c20.64 8.976 55.017 14.656 86.824 5.706 1.045 2.32 3.453 6.373 9.397 5.982 15.2-1 19.432-16.92 22.362-19.883 4.378-4.43 11.216-7.477 16.1-11.6 15.94-13.455 28.524-30.78 36.325-49.793C298.04 128.1 252.657 20.603 149.384 20.603z"/>
</svg>
